<svg xmlns="http://www.w3.org/2000/svg" viewBox="0 0 928.8 642.7"><defs><style>.e475d103-7fed-43bb-9e75-7e97b77a081a{fill:#83a4d7;}.a1c47f79-21f2-468d-80d8-bc521f0937e5{fill:#662d91;opacity:0.66;}.e7084c91-f3e9-41ea-b884-f9351a00baae{fill:#c3e3e5;}.b559049e-ebb9-4857-a0ae-3a9f7bf712ab{fill:#ccc;}.b45de625-fdfa-4dde-b537-3a142d80aa60{fill:#f2f2f2;}.ae6933d6-51e1-4141-9198-d06cc74e6e8b{fill:#ffe9e9;}.bf2182eb-9147-4246-8f5f-7619c90e3f4b{fill:#3fa9f5;}.a6cf41db-ad9c-45af-882c-8a5f17e864e4{fill:#998675;}.b8d05b94-f838-43ea-a2f4-6ae0805d91f3{fill:#764736;}.b9e0f0d1-8434-4946-b6fc-110d91c182f8,.ba3fd4a5-9555-4512-8bdb-f22289eaa2a3{opacity:0.55;}.b64b3af5-3419-4717-ada4-f1505d615104,.ba3fd4a5-9555-4512-8bdb-f22289eaa2a3,.be218aca-6cbd-491e-89ff-19ee24788a4b,.f9516346-a55d-4ecc-a0a2-49a8fccd2654{fill:none;}.f9516346-a55d-4ecc-a0a2-49a8fccd2654{stroke:#f7931e;}.a6694ee6-471d-4f44-886a-7a0e9b234ac0,.b64b3af5-3419-4717-ada4-f1505d615104,.ba3fd4a5-9555-4512-8bdb-f22289eaa2a3,.be218aca-6cbd-491e-89ff-19ee24788a4b,.f9516346-a55d-4ecc-a0a2-49a8fccd2654{stroke-miterlimit:10;}.bc6fc971-f9bf-4d77-bc6d-722429ea0304{fill:#b3b3b3;}.a6694ee6-471d-4f44-886a-7a0e9b234ac0{stroke:#000;}.a0ed77c5-53eb-413b-9322-521d32aa551a{opacity:0.99;}.fe9a0a43-75bc-4449-8aae-249335a0317e{opacity:0.65;}.ba3fd4a5-9555-4512-8bdb-f22289eaa2a3,.be218aca-6cbd-491e-89ff-19ee24788a4b{stroke:#4d4d4d;}.be218aca-6cbd-491e-89ff-19ee24788a4b{opacity:0.7;}.b0f4e828-36ef-4bbf-8ae5-e4150e5c3815{opacity:0.8;}.ac6ef698-3f28-4483-a6cd-e078ebed78f6{fill:#a6bfc3;}.ac12aa6a-2fcb-4961-9de8-c94db3ea2c13{fill:#f7931e;}.bc3101a2-5725-4164-8964-0975b22ca2c2{fill:#7ba1c7;}.e309fd4e-cd77-4e70-bfbc-c784a852666f{opacity:0.5;}.e50f881e-61b8-4f3d-ab9c-408105b3da2c{fill:#fa6945;}.b8fcc3d3-06f3-4c83-b84b-d2fd9a1e01ce{fill:#563405;}.a16bcc1d-75e6-43e0-8db0-d2da58dfbb19{fill:#4d4d4d;}.a7572623-c050-43e2-8883-7d6fcf5c54af{fill:#f7d98d;}.b64b3af5-3419-4717-ada4-f1505d615104{stroke:#f2f2f2;}.b26ea971-50ab-43ca-9544-444454e1f12d{fill:#fff;}.b6f90775-a9d5-4972-8277-7d17cd41a500{fill:#f15a57;}</style></defs><title>illustrator</title><g id="ab38b6f4-eb73-4950-a082-b115b7a8efc3" data-name="bg"><path class="e475d103-7fed-43bb-9e75-7e97b77a081a" d="M390.5,135.5c-95,124.35-191.26,402.13,13.83,468.74,86.74,28.17,185.58,36.49,275.07,53.47,60.91,11.56,168.57,54.86,230.35,43.34,43.93-8.19,95.68-69.84,130.61-98.91,40.41-33.64,157.93-102.82,170.14-157.64,9.8-44-45.16-192.92-79.13-219.6-51.86-40.72-151.7-48-216.28-57.7-105.16-15.76-211-29.68-315.56-48.85C514,102.69,478.34,86.83,390.5,135.5Z" transform="translate(-282.85 -60.28)"/><path class="a1c47f79-21f2-468d-80d8-bc521f0937e5" d="M518,122c-43.6,25-83.88-4.15-97.72,53.88-4.88,20.46-7.21,53.4-1.14,73,15.67,50.48,74.11,71.57,79.32,128.9,7.45,82-121.92,114.46-75.46,214.23,35.32,75.85,145.29,101.77,220.25,106.25,67.13,4,143.35-17.59,210.78-29.37,60.3-10.55,112.6-20,165.65-52.53C1087,575,1120,473.41,1079.5,402.5c-33-57.75-94.67-50.18-142.79-87.35-49.49-38.22-36.64-85-41.91-136.68-6.5-63.63-69.92-90.17-125-98.72-26.86-4.16-56,8.67-79.75,5.25-34.09-4.91-41.35-29.17-81.32-24C571.59,65.8,531.24,84.38,518,122Z" transform="translate(-282.85 -60.28)"/></g><g id="f57424b8-66fc-4248-85ee-42928e598c27" data-name="sofa"><path class="e7084c91-f3e9-41ea-b884-f9351a00baae" d="M658,416l-26,22-5,17-2,16,23,62,24,15,32,14,33,10,45,7c48.14,7.1,91,4,122-22,32.94-30.15,45.39-67.3,24-115-15.26-11.74-36.42-20.08-62-26l-183-6A32.25,32.25,0,0,0,658,416Z" transform="translate(-282.85 -60.28)"/><path d="M834.42,462.45a93.26,93.26,0,0,1,7.47-10.56,58.85,58.85,0,0,1,9.36-9A31.19,31.19,0,0,1,863,436.93a22.91,22.91,0,0,1,13,.64l0,.19a32.81,32.81,0,0,0-12.49,1.1,39.54,39.54,0,0,0-11.3,5.3,56.77,56.77,0,0,0-9.55,8.4,92.4,92.4,0,0,0-8.06,10Z" transform="translate(-282.85 -60.28)"/><path d="M838.89,469.2A86.11,86.11,0,0,1,852.3,463a98.84,98.84,0,0,1,14.25-4,94.52,94.52,0,0,1,14.7-1.75A79.86,79.86,0,0,1,896,458c-4.92.11-9.79.34-14.64.82s-9.65,1.2-14.42,2.15-9.48,2.15-14.15,3.53S843.51,467.51,838.89,469.2Z" transform="translate(-282.85 -60.28)"/></g><g id="f69032e6-e4ab-4d7c-9e9a-e25d84720fcc" data-name="pad"><polygon points="423.15 340.72 407.15 353.72 474.15 375.72 483.15 358.22 423.15 340.72"/><path class="b559049e-ebb9-4857-a0ae-3a9f7bf712ab" d="M707,403l-13,10,56.56,17q4.23-5,8.44-10Z" transform="translate(-282.85 -60.28)"/><path class="b45de625-fdfa-4dde-b537-3a142d80aa60" d="M731,422q-18.24-4.23-18-6c.06-.46,1.06-.79,3-1l6-1-3-3-4-4,8,5q3.3,2.13,3,3c-.48,1.38-7.52-.38-8,1q-.3.87,3,3" transform="translate(-282.85 -60.28)"/></g><g id="b5d77db1-09d9-4514-b59a-740c14f566d1" data-name="figure"><g id="bb3df707-637e-40da-9bbb-8b43f30cfcaf" data-name="figure"><polygon class="ae6933d6-51e1-4141-9198-d06cc74e6e8b" points="359.15 467.72 337.15 486.72 320.15 469.72 340.15 454.72 359.15 467.72"/><polygon class="ae6933d6-51e1-4141-9198-d06cc74e6e8b" points="317.15 426.72 294.15 446.72 317.15 460.72 340.15 435.72 317.15 426.72"/><path class="bf2182eb-9147-4246-8f5f-7619c90e3f4b" d="M612,522l12,11,12,2,71-58,6-8c8.37-6.36,11.46-16.27,8.5-22.5-3.74-7.87-18.23-12.17-30.5-3.5Z" transform="translate(-282.85 -60.28)"/><polygon class="ae6933d6-51e1-4141-9198-d06cc74e6e8b" points="475.15 326.72 475.15 343.72 479.15 354.72 494.87 360.95 497.15 367.72 479.15 373.72 465.15 362.72 461.15 354.72 454.15 347.72 450.15 337.72 454.15 328.72 466.15 323.72 471.15 321.72 475.15 326.72"/><path class="bf2182eb-9147-4246-8f5f-7619c90e3f4b" d="M827.5,482.5c-12.47,3.62-25.55,1.82-61.33-3.4a235.61,235.61,0,0,1-57.67-15.6l-94,54c-15-4-26-10.3-31-20l87-55c4-9.26,8.4-13.73,13-15,33-5,65.67-2.31,98,6l46,4c11.62.18,21.46,7,24.5,16.5,2.72,8.53-1,16.14-2,18A82.05,82.05,0,0,1,827.5,482.5Z" transform="translate(-282.85 -60.28)"/><path class="bf2182eb-9147-4246-8f5f-7619c90e3f4b" d="M712,465a255,255,0,0,0,107,19" transform="translate(-282.85 -60.28)"/><path d="M712,465c8.68,2.89,17.37,5.6,26.15,7.92,4.4,1.14,8.8,2.26,13.24,3.21s8.88,1.89,13.35,2.65,9,1.51,13.45,2.1,9,1.09,13.53,1.54c9,.85,18.14,1.3,27.28,1.58a182.12,182.12,0,0,1-27.44.76c-4.59-.18-9.16-.59-13.72-1.06s-9.1-1.18-13.62-2-9-1.76-13.47-2.85-8.88-2.32-13.25-3.73A182.79,182.79,0,0,1,712,465Z" transform="translate(-282.85 -60.28)"/><path class="a6cf41db-ad9c-45af-882c-8a5f17e864e4" d="M581.5,499.5,558,499l-30-4-3.5-.5a6.82,6.82,0,0,0-6,7v8l8,8,39,14,26,4h13c4.58-5.5,8.32-11,7.5-16.5l-8-3Z" transform="translate(-282.85 -60.28)"/><polygon class="b8d05b94-f838-43ea-a2f4-6ae0805d91f3" points="236.15 444.72 238.15 449.72 243.15 453.72 248.15 455.72 252.15 457.72 258.15 458.72 264.15 459.72 276.15 462.72 287.15 463.72 289.15 466.72 284.15 466.72 277.15 466.72 270.15 466.72 261.38 463.58 252.15 461.72 247.15 459.72 241.15 455.72 236.15 451.72 235.15 448.72 234.15 445.72 234.15 442.72 235.65 441.78 236.15 444.72"/><g class="b9e0f0d1-8434-4946-b6fc-110d91c182f8"><path d="M541,518.91c1.2-.58,2.4-1.14,3.61-1.66l3.64-1.59.06,0,.22,0c1.5-.14,3-.21,4.5-.31s3-.16,4.5-.23h.17l.28.08c1,.29,2,.56,3,.87l3,.92-.52-.09c1.67-.05,3.33-.09,5-.1h.27l.28.09,3,1c1,.33,2,.64,3,1l-.21-.06,3.78.83c1.26.27,2.52.53,3.78.83l-.23,0,7.17.71c2.4.18,4.8.34,7.2.57h.09c.9.16,1.8.3,2.71.48s1.8.37,2.7.52a21.81,21.81,0,0,1,2.77.64,6.92,6.92,0,0,1,1.33.55,3.13,3.13,0,0,1,.61.44,1,1,0,0,1,.33.71h-.2c0-.39-.49-.64-.89-.81a7.81,7.81,0,0,0-1.3-.38,20.53,20.53,0,0,0-2.71-.37c-1.83-.17-3.65-.37-5.48-.56h0l-7.24-.16-7.23-.47h0l-7.57-1.55h0l-6-2h-5l-6-2h0l-9,0h0L541,519.09Z" transform="translate(-282.85 -60.28)"/></g><polygon class="f9516346-a55d-4ecc-a0a2-49a8fccd2654" points="284.65 441.22 293.65 446.22 295.65 454.22 291.65 456.22 284.65 454.22 285.65 447.22 283.65 443.22 283.65 440.22 284.65 433.22 279.65 430.22 271.65 430.22 273.65 438.22 281.65 439.22 286.65 439.22 292.65 441.22 296.65 444.22 284.65 441.22"/><path class="a6cf41db-ad9c-45af-882c-8a5f17e864e4" d="M624,538a38.24,38.24,0,0,0-11.48-11.11c-7.61-4.2-15.6-4.26-23.41-4.33-6,0-5.82.46-12.11.44a82.15,82.15,0,0,1-17-2c-11.29-2.28-13-4.52-17-3-4.73,1.8-8.47,7.23-8,12,.16,1.61,1.77,3.74,5,8,3.53,4.66,6.33,7,9.33,8.65l.67.35c6.81,3.52,10.52,2.18,18,7,4.64,3,5.81,5.18,9,8,7,6.14,22.56,14.46,35,8C622.9,564.34,630.69,547.6,624,538Z" transform="translate(-282.85 -60.28)"/><polygon class="f9516346-a55d-4ecc-a0a2-49a8fccd2654" points="305.65 464.22 314.65 469.22 316.65 477.22 312.65 479.22 305.65 477.22 306.65 470.22 304.65 466.22 304.65 463.22 305.65 456.22 300.65 453.22 292.65 453.22 294.65 461.22 302.65 462.22 307.65 462.22 313.65 464.22 317.65 467.22 305.65 464.22"/><path class="b8d05b94-f838-43ea-a2f4-6ae0805d91f3" d="M535,532l8,10c1.35.93,3.43,2.34,6,4,3.62,2.35,6,3.78,8,5,6,3.71,9.88,6.72,12,8a166.52,166.52,0,0,0,27.39,13.34A29.45,29.45,0,0,0,615,569l3-3c1.5-.55,1.91-1.14,2-1.59a10.43,10.43,0,0,0,0-1.41v-1l-6,3-8,1H594l-11-4-14-7-12-7-11-8a25.11,25.11,0,0,1-10-15,11.18,11.18,0,0,0-1,7Z" transform="translate(-282.85 -60.28)"/><path class="bc6fc971-f9bf-4d77-bc6d-722429ea0304" d="M787,427q10.69,3.78,21,7l45,29V446c-2.25-24.21-3.61-53-9-61-7.33-15.26-24.41-25.53-45-34a40.41,40.41,0,0,0-14,9c-8.2,8.13-10.35,17.81-11.69,23.69A61.34,61.34,0,0,0,772,402v20l4,1Q781.4,425,787,427Zm-12-39,.09-.41.63,1.4Z" transform="translate(-282.85 -60.28)"/><path class="ae6933d6-51e1-4141-9198-d06cc74e6e8b" d="M739.5,336.5h31l27,9.75v7.25l-9,8-9,6-2,10-9,6c-2.32-.77-7,0-15-5h-8l1-9-7-7-2-6Z" transform="translate(-282.85 -60.28)"/><path class="a6694ee6-471d-4f44-886a-7a0e9b234ac0" d="M749.5,318.5l16-5c12.84,3.21,19.91,11.73,24,23l8,6v11l-7,1h-10l-7-5-6,2-6,5h-7l-3-10s-4-2-5-2a22.69,22.69,0,0,0-4,1l-6,9-8-5-2-11,10-9Z" transform="translate(-282.85 -60.28)"/><path class="ae6933d6-51e1-4141-9198-d06cc74e6e8b" d="M823,405q.5,9,1,18a10.72,10.72,0,0,1-8,12,101.19,101.19,0,0,1-12.12,1.73A103.08,103.08,0,0,1,775,435l-17-6,4-4,11.89-4.28c5.83-2.1,8.6-3.16,13.11-4.72,3.8-1.31,6.93-2.33,9-3Z" transform="translate(-282.85 -60.28)"/><path d="M616,514c3.75-2.29,7.55-4.51,11.32-6.75l11.57-6.31L662,488.31l23.13-12.62,11.56-6.32c3.93-1.95,7.85-3.94,11.8-5.87-3.76,2.28-7.55,4.5-11.32,6.75l-11.57,6.31-23.12,12.63-23.13,12.62-11.56,6.32C623.87,510.09,620,512.08,616,514Z" transform="translate(-282.85 -60.28)"/><path d="M685.45,432.3a31.89,31.89,0,0,1,3.13,5.42c.4,1,.73,2,1.17,2.91a27.08,27.08,0,0,0,1.49,2.75c1.11,1.78,2.1,3.61,3,5.47a47.41,47.41,0,0,1,2.36,5.81l-.08,0a47.46,47.46,0,0,1-3.23-5.37c-.93-1.87-1.8-3.76-2.56-5.71a26,26,0,0,0-1.3-2.84c-.5-.92-1.1-1.78-1.63-2.68a30.91,30.91,0,0,1-2.46-5.76Z" transform="translate(-282.85 -60.28)"/><g class="a0ed77c5-53eb-413b-9322-521d32aa551a"><path d="M694.5,429.5a52.9,52.9,0,0,1,2.89,7.23q1.2,3.67,2.07,7.43t1.44,7.57a52.65,52.65,0,0,1,.6,7.77,53,53,0,0,1-2.9-7.23c-.8-2.45-1.48-4.93-2.06-7.43s-1.07-5-1.43-7.57A52.65,52.65,0,0,1,694.5,429.5Z" transform="translate(-282.85 -60.28)"/></g><g class="fe9a0a43-75bc-4449-8aae-249335a0317e"><path d="M815,376a15.57,15.57,0,0,1,8.5,12.5,32.62,32.62,0,0,0-3.46-6.79A33.07,33.07,0,0,0,815,376Z" transform="translate(-282.85 -60.28)"/></g><path class="ba3fd4a5-9555-4512-8bdb-f22289eaa2a3" d="M791.5,381.5q.5,9,1,18,1.18,6.75,2.38,13.5h.75s.19-.29.3-.25.08.14.07.25" transform="translate(-282.85 -60.28)"/><path class="be218aca-6cbd-491e-89ff-19ee24788a4b" d="M781.8,418a84.76,84.76,0,0,0-17.3,6.54c-2.54,1.3-4.88,2.65-7,4" transform="translate(-282.85 -60.28)"/><path d="M791.08,381a32.78,32.78,0,0,1,1.76,5.89,57.41,57.41,0,0,1,1.17,12,33.61,33.61,0,0,1-.59,6.11,32,32,0,0,1-1.76-5.89,54.59,54.59,0,0,1-.9-6,52.86,52.86,0,0,1-.26-6A32.73,32.73,0,0,1,791.08,381Z" transform="translate(-282.85 -60.28)"/></g></g><g id="f64f3870-ea78-4a4f-8f24-8ba10f112fa3" data-name="chair"><polygon points="212.65 218.31 210.34 183.72 214.64 218.12 212.65 218.31"/><g class="b0f4e828-36ef-4bbf-8ae5-e4150e5c3815"><polygon points="219.65 177.22 223.14 203.16 222.15 203.28 219.65 177.22"/></g><g class="b0f4e828-36ef-4bbf-8ae5-e4150e5c3815"><polygon points="296.15 184.91 294.15 213.26 293.15 213.18 296.15 184.91"/></g><g class="b0f4e828-36ef-4bbf-8ae5-e4150e5c3815"><polygon points="291.15 172.91 289.15 201.26 288.15 201.18 291.15 172.91"/></g><path class="ac6ef698-3f28-4483-a6cd-e078ebed78f6" d="M579,231l-77,2-10,10c.33,1,.67,2,1,3,.33,2.33.67,4.67,1,7l85-4v-6c.33-2.33.67-4.67,1-7C579.67,234.33,579.33,232.67,579,231Z" transform="translate(-282.85 -60.28)"/><path d="M497,242.5c3.29-.31,6.57-.55,9.86-.82l9.87-.3,19.75-.63,19.75-.62,9.88-.32c3.3.07,6.59.09,9.89.19-3.29.31-6.57.54-9.86.81l-9.87.31-19.75.63-19.75.62-9.88.32C503.59,242.63,500.3,242.61,497,242.5Z" transform="translate(-282.85 -60.28)"/></g><g id="ef04fb60-93ba-458b-87ed-c79b5063add3" data-name="figure2"><path class="ac12aa6a-2fcb-4961-9de8-c94db3ea2c13" d="M512.35,244c0,11.12-2.39,39,11.24,42.93,2-7.84,7.58-68.24,21.46-48.29,10.56,15.16-18.52,50.25,6.14,50.33,2.47-14,15.21-42.73,7.66-54.68C550,220.26,505.37,221.23,512.35,244Z" transform="translate(-282.85 -60.28)"/><path class="bc3101a2-5725-4164-8964-0975b22ca2c2" d="M531.77,171.47a19.27,19.27,0,0,0-7.16,4.09,49.73,49.73,0,0,0-12.26,15.33,59.91,59.91,0,0,0-2.05,12.26,35.46,35.46,0,0,0,0,7.15,22.37,22.37,0,0,0,3.07,8.18l3.07,4.09,9.2,4.09,21.46,3.06,15.33-2a49.09,49.09,0,0,0,6.13-6.13,50.09,50.09,0,0,0,3.07-4.09,28,28,0,0,0,3.06-17.38,58.19,58.19,0,0,0-3.06-14.3,57.41,57.41,0,0,0-3.07-7.16,53.86,53.86,0,0,0-12.26-5.11c-2.74-.75-6.6-1.18-14.31-2C536.09,170.81,534.16,170.78,531.77,171.47Z" transform="translate(-282.85 -60.28)"/><g class="e309fd4e-cd77-4e70-bfbc-c784a852666f"><path d="M526.15,192.42a43.51,43.51,0,0,0-2.76,8.6,40,40,0,0,0-.84,8.92,37.35,37.35,0,0,0,1.25,8.86l.64,2.16.79,2.11.9,2.07c.36.67.7,1.35,1,2-.43-.63-.85-1.26-1.27-1.9l-1.11-2-.94-2.09-.79-2.16a31.32,31.32,0,0,1-1.5-9.06,33,33,0,0,1,1.08-9.12A32.13,32.13,0,0,1,526.15,192.42Z" transform="translate(-282.85 -60.28)"/></g><g class="e309fd4e-cd77-4e70-bfbc-c784a852666f"><path d="M560.9,192.42a36.05,36.05,0,0,1,.67,10.11,31,31,0,0,1-2.39,9.92,29,29,0,0,1-5.59,8.53c-.61.6-1.2,1.21-1.82,1.79s-1.28,1.12-1.95,1.64-1.38,1-2.08,1.46-1.45.88-2.18,1.3a41.11,41.11,0,0,0,7.46-6.7,32.11,32.11,0,0,0,5.24-8.42,35.19,35.19,0,0,0,2.55-9.6A48.7,48.7,0,0,0,560.9,192.42Z" transform="translate(-282.85 -60.28)"/></g><path class="ae6933d6-51e1-4141-9198-d06cc74e6e8b" d="M535.86,166.36c-.26,8.9,4.64,18.65,13.28,11.24C564,164.9,536.41,147.29,535.86,166.36Z" transform="translate(-282.85 -60.28)"/><path class="e50f881e-61b8-4f3d-ab9c-408105b3da2c" d="M538.92,163.29l-5.11,5.11c-4.23-14.09,11.31-24.1,22.49-15.33C565.66,160.42,548.54,178,538.92,163.29Z" transform="translate(-282.85 -60.28)"/><polygon class="bc6fc971-f9bf-4d77-bc6d-722429ea0304" points="230.52 161.26 237.88 172.51 279.58 175.57 279.58 164.33 230.52 161.26"/><g id="a68420a4-6013-48dd-bc79-5d55bbcccf7a" data-name="图层 17"><polygon class="b8fcc3d3-06f3-4c83-b84b-d2fd9a1e01ce" points="258.15 221.72 258.15 225.72 258.15 227.72 261.15 228.72 267.15 229.72 272.15 229.72 273.15 225.72 269.15 223.72 260.15 221.72 258.15 221.72"/><path class="b8fcc3d3-06f3-4c83-b84b-d2fd9a1e01ce" d="M518,281l-5,4s-3,2-3,3,4,3,4,3h5l5-4,1-3v-3Z" transform="translate(-282.85 -60.28)"/></g></g><g id="b30f8c53-f4fa-4199-9552-84e8ee03fb67" data-name="light"><path class="a16bcc1d-75e6-43e0-8db0-d2da58dfbb19" d="M762,289C759.63,302.93,790.39,289,762,289Z" transform="translate(-282.85 -60.28)"/><path class="a7572623-c050-43e2-8883-7d6fcf5c54af" d="M777,283a20.83,20.83,0,0,1,1-4.47c3.34-10,14-22.59,7.26-35.07-6.57-12.21-25.71-11.77-33.78-3.15C739.73,252.83,751.76,268,757,282c0,.05,0,.09,0,.15C763.65,282,770.32,282.81,777,283Z" transform="translate(-282.85 -60.28)"/><path class="b64b3af5-3419-4717-ada4-f1505d615104" d="M763.5,283.5v-36c-32.49,7.51,37.78,20.84,10,0C770.6,251.85,774.23,294.23,763.5,283.5Z" transform="translate(-282.85 -60.28)"/><path class="b559049e-ebb9-4857-a0ae-3a9f7bf712ab" d="M757,282.15c-.73,4-.08,6.79,1.53,8.54C759,291.23,760,292,771,292c4,0,5.14-.07,6-1,2.26-2.33.26-7.34,0-8C770.32,282.81,763.65,282,757,282.15Z" transform="translate(-282.85 -60.28)"/><path class="a7572623-c050-43e2-8883-7d6fcf5c54af" d="M804,209a61.83,61.83,0,0,1-5.25,4.56c-1.79,1.42-3.61,2.77-5.42,4.11s-3.63,2.64-5.38,4a30.73,30.73,0,0,0-2.53,2.14,7,7,0,0,0-1.92,2.68,5.39,5.39,0,0,1,.74-3.55,16,16,0,0,1,2.08-3,31.6,31.6,0,0,1,5.23-4.73,45.31,45.31,0,0,1,5.93-3.67A33.53,33.53,0,0,1,804,209Z" transform="translate(-282.85 -60.28)"/><g class="a0ed77c5-53eb-413b-9322-521d32aa551a"><path class="a7572623-c050-43e2-8883-7d6fcf5c54af" d="M758.39,209a14.94,14.94,0,0,1,3.49,4.19,20.43,20.43,0,0,1,2,4.76,19.54,19.54,0,0,1,.75,5.15,10.93,10.93,0,0,1-1.22,5.45h-.3a18.75,18.75,0,0,0-.32-2.47c-.14-.83-.31-1.65-.5-2.46q-.59-2.44-1.29-4.86c-.45-1.62-.91-3.24-1.4-4.84l-1.48-4.82Z" transform="translate(-282.85 -60.28)"/></g><path class="a7572623-c050-43e2-8883-7d6fcf5c54af" d="M723,215a38.27,38.27,0,0,1,4.91,4.14,53.89,53.89,0,0,1,4.29,4.76,36.84,36.84,0,0,1,3.59,5.36,19.59,19.59,0,0,1,1.31,3,7,7,0,0,1,.4,3.24,10.16,10.16,0,0,0-1.29-2.84c-.53-.88-1.14-1.73-1.75-2.57q-1.85-2.51-3.83-5l-3.89-5C725.45,218.5,724.18,216.8,723,215Z" transform="translate(-282.85 -60.28)"/></g><g id="f3286ec3-ace5-4f2f-9162-31f48aef67c8" data-name="bubble1"><path class="a7572623-c050-43e2-8883-7d6fcf5c54af" d="M584.5,346.5c-8.35,12.44-10.07,26.39-10,41,0,8.57.23,17.15.67,25.72.23,4.26.54,8.53.82,12.79.39,5.89.28,6,4.17,9.17,21.09,17.15,57.25-8,70.57-23,8.26-9.3,15-20.61,22-31,5.83-8.74,15.67-23.19,25.81-25.72-9.63.37-20.43,2.06-30,.88-7.85-1-13.44-5.76-20.63-7.88C625.93,342,606.67,342.47,584.5,346.5Z" transform="translate(-282.85 -60.28)"/><path class="b26ea971-50ab-43ca-9544-444454e1f12d" d="M599.53,362.21c-1.08,2-2.1,4.59-1,6.29,1.63,2.59,6.47.51,16,1,8.74.45,16.29,2.8,17,1,.08-.21,0-.23,0-1,.07-2,.86-2.91,1-4,.11-.87-.15-2.19-2-4a90.27,90.27,0,0,0-13-1A91.55,91.55,0,0,0,599.53,362.21Z" transform="translate(-282.85 -60.28)"/><path class="b26ea971-50ab-43ca-9544-444454e1f12d" d="M597.53,386.21c-1.08,2-2.1,4.59-1,6.29,1.63,2.59,6.47.51,16,1,8.74.45,16.29,2.8,17,1,.08-.21,0-.23,0-1,.07-2,.86-2.91,1-4,.11-.87-.15-2.19-2-4a90.27,90.27,0,0,0-13-1A91.55,91.55,0,0,0,597.53,386.21Z" transform="translate(-282.85 -60.28)"/><path class="b26ea971-50ab-43ca-9544-444454e1f12d" d="M591.53,416.21c-1.08,2-2.1,4.59-1,6.29,1.63,2.59,6.47.51,16,1,8.74.45,16.29,2.8,17,1,.08-.21,0-.23,0-1,.07-2,.86-2.91,1-4,.11-.87-.15-2.19-2-4a90.27,90.27,0,0,0-13-1A91.55,91.55,0,0,0,591.53,416.21Z" transform="translate(-282.85 -60.28)"/></g><g id="fa49b180-f926-4435-93ef-3e7bf3fcfe68" data-name="bubble2"><path class="a7572623-c050-43e2-8883-7d6fcf5c54af" d="M567,148c3.94,2.73,9.87,6.88,17,12,42.38,30.43,46.6,37.42,60,42,23.93,8.17,57.92,2.09,65-14,9.43-21.43-24.63-70.35-69-75C598.85,108.69,569.65,144.64,567,148Z" transform="translate(-282.85 -60.28)"/><path class="b6f90775-a9d5-4972-8277-7d17cd41a500" d="M614.24,165.84a38.2,38.2,0,0,0,1.82-12.91,19.81,19.81,0,0,0-.81-5.58c-1.71-5.1-5.64-5.24-6.25-5.24a29.11,29.11,0,0,1,4,9.35A48.16,48.16,0,0,1,614.24,165.84Z" transform="translate(-282.85 -60.28)"/><path class="b6f90775-a9d5-4972-8277-7d17cd41a500" d="M619.91,153.88c-3.36-.18-5.25-.88-5.49-.7s4.16,2.42,10.14,2.65a18.26,18.26,0,0,0,5.53-.44c2.95-.81,4.3-2.57,3.28-3C632,151.78,627.21,154.29,619.91,153.88Z" transform="translate(-282.85 -60.28)"/><path class="b6f90775-a9d5-4972-8277-7d17cd41a500" d="M658.05,150.76c-1.11-.37-9.58,14.79-5.17,19.08,3.47,3.39,13.2-1.71,13.12-2.07s-4.83,2.14-7.56,0C653.9,164.19,659.05,151.09,658.05,150.76Z" transform="translate(-282.85 -60.28)"/><path class="b6f90775-a9d5-4972-8277-7d17cd41a500" d="M658.8,144.15c-2,.52-3.77,2.38-3.25,3.45.61,1.25,4.51,1.8,5.91.25a2.47,2.47,0,0,0-.59-3.7A3,3,0,0,0,658.8,144.15Z" transform="translate(-282.85 -60.28)"/><path class="b6f90775-a9d5-4972-8277-7d17cd41a500" d="M634.73,142A36.93,36.93,0,0,0,631,154.78a18.13,18.13,0,0,0,.14,5.66c1.19,5.28,5.45,5.78,6.11,5.84a26.85,26.85,0,0,1-3.13-9.75A44.51,44.51,0,0,1,634.73,142Z" transform="translate(-282.85 -60.28)"/></g></svg>