<svg width="1437" height="580" viewBox="0 0 1437 580" fill="none" xmlns="http://www.w3.org/2000/svg">
<g clip-path="url(#clip0)">
<path d="M23.9387 0C-66.7043 61.7324 39.0246 597.92 1437 0H23.9387Z" fill="#6474E5" fill-opacity="0.5"/>
<path d="M493.5 0C510.771 119.035 781.382 83.2445 721.5 0H493.5Z" fill="#FAFAFA"/>
<path d="M754.135 288.831C693.171 276.098 660.769 233.313 689.728 199.245C718.686 165.177 826.725 180.376 880.953 199.245C935.181 218.113 909.998 266.551 903.421 269.273C896.844 271.996 815.099 301.564 754.135 288.831Z" fill="#FAFAFA"/>
<path d="M166.243 163.045C105.192 152.953 72.7431 119.045 101.743 92.0447C130.743 65.0447 238.937 77.0907 293.243 92.0447C347.549 106.999 322.329 145.387 315.743 147.545C309.157 149.702 227.295 173.136 166.243 163.045Z" fill="#FAFAFA"/>
</g>
<g clip-path="url(#clip1)">
<path d="M796.466 166.603C727.221 257.19 657.057 459.546 806.547 508.07C869.771 528.591 941.815 534.652 1007.04 547.022C1051.44 555.443 1129.91 586.986 1174.95 578.594C1206.97 572.628 1244.69 527.717 1270.15 506.54C1299.6 482.034 1385.26 431.638 1394.16 391.703C1401.3 359.65 1361.24 251.165 1336.48 231.729C1298.68 202.066 1225.91 196.762 1178.84 189.696C1102.19 178.215 1025.04 168.075 948.827 154.11C886.485 142.702 860.492 131.148 796.466 166.603Z" fill="#83A4D7"/>
<path opacity="0.66" d="M889.4 156.769C857.62 174.981 828.26 153.746 818.172 196.019C814.615 210.924 812.917 234.92 817.341 249.198C828.763 285.972 871.36 301.335 875.158 343.099C880.588 402.834 786.29 426.481 820.155 499.161C845.9 554.416 926.057 573.298 980.695 576.562C1029.63 579.475 1085.18 563.748 1134.33 555.166C1178.28 547.481 1216.41 540.597 1255.07 516.899C1304.14 486.769 1328.2 412.763 1298.68 361.107C1274.62 319.037 1229.67 324.552 1194.6 297.474C1158.52 269.632 1167.89 235.554 1164.05 197.906C1159.31 151.553 1113.08 132.219 1072.94 125.991C1053.36 122.96 1032.12 132.307 1014.81 129.815C989.959 126.238 984.667 108.566 955.533 112.332C928.462 115.828 899.051 129.364 889.4 156.769Z" fill="#662D91"/>
<path d="M991.446 370.941L972.495 386.968L968.85 399.352L967.392 411.008L984.157 456.173L1001.65 467.1L1024.98 477.299L1049.03 484.584L1081.83 489.683C1116.92 494.855 1148.16 492.597 1170.75 473.657C1194.76 451.693 1203.84 424.63 1188.25 389.882C1177.13 381.329 1161.7 375.254 1143.06 370.941L1009.67 366.571C1006.49 366.011 1003.24 366.111 1000.1 366.863C996.968 367.615 994.021 369.003 991.446 370.941Z" fill="#C3E3E5"/>
<path d="M1120.04 404.779C1121.67 402.092 1123.49 399.522 1125.48 397.087C1127.51 394.656 1129.8 392.457 1132.31 390.53C1134.82 388.49 1137.74 387.01 1140.87 386.188C1144.01 385.425 1147.3 385.587 1150.35 386.655V386.793C1147.29 386.473 1144.2 386.745 1141.24 387.594C1138.31 388.437 1135.53 389.741 1133.01 391.455C1130.46 393.228 1128.13 395.281 1126.04 397.575C1123.92 399.864 1121.96 402.298 1120.17 404.859L1120.04 404.779Z" fill="black"/>
<path d="M1123.3 409.696C1126.42 407.914 1129.69 406.403 1133.07 405.18C1136.46 403.95 1139.93 402.976 1143.46 402.266C1146.99 401.562 1150.57 401.135 1154.17 400.991C1157.77 400.841 1161.36 401.024 1164.92 401.538C1161.34 401.618 1157.79 401.785 1154.25 402.135C1150.72 402.485 1147.22 403.009 1143.74 403.701C1140.26 404.393 1136.83 405.267 1133.43 406.273C1130.02 407.278 1126.66 408.465 1123.3 409.696Z" fill="black"/>
<path d="M1026.43 360.014L1014.77 369.484L1063.61 385.511L1070.17 372.763L1026.43 360.014Z" fill="black"/>
<path d="M1027.16 361.471L1017.69 368.756L1058.91 381.14C1060.97 378.712 1063.02 376.284 1065.06 373.855L1027.16 361.471Z" fill="#CCCCCC"/>
<path d="M1044.66 375.312C1035.79 373.258 1031.42 371.801 1031.54 370.941C1031.58 370.606 1032.31 370.366 1033.72 370.213L1038.1 369.484L1035.91 367.299L1032.99 364.385L1038.82 368.028C1040.43 369.062 1041.16 369.79 1041.01 370.213C1040.66 371.218 1035.53 369.936 1035.18 370.941C1035.03 371.364 1035.76 372.092 1037.37 373.127" fill="#F2F2F2"/>
<path d="M979.783 452.531L963.748 466.372L951.357 453.988L965.934 443.061L979.783 452.531Z" fill="#FFE9E9"/>
<path d="M949.17 422.663L932.405 437.233L949.17 447.432L965.934 429.22L949.17 422.663Z" fill="#FFE9E9"/>
<path d="M957.917 448.16L966.663 456.173L975.41 457.63L1027.16 415.379L1031.54 409.551C1037.64 404.918 1039.89 397.698 1037.73 393.16C1035 387.427 1024.44 384.294 1015.5 390.61L957.917 448.16Z" fill="#3FA9F5"/>
<path d="M1064.34 349.816V362.2L1067.25 370.213L1078.71 374.751L1080.37 379.683L1067.25 384.054L1057.05 376.041L1054.13 370.213L1049.03 365.114L1046.11 357.829L1049.03 351.273L1057.78 347.63L1061.42 346.173L1064.34 349.816Z" fill="#FFE9E9"/>
<path d="M1114.99 419.385C1105.9 422.022 1096.37 420.711 1070.29 416.908C1055.85 414.918 1041.73 411.099 1028.26 405.544L959.739 444.882C948.805 441.968 940.787 437.379 937.143 430.312L1000.56 390.246C1003.47 383.5 1006.68 380.244 1010.03 379.319C1034.09 375.677 1057.9 377.636 1081.46 383.69L1114.99 386.604C1123.46 386.735 1130.64 391.703 1132.85 398.624C1134.83 404.837 1132.12 410.381 1131.39 411.736C1126.35 415.102 1120.82 417.682 1114.99 419.385Z" fill="#3FA9F5"/>
<path d="M1030.81 406.637C1055.51 416.798 1082.11 421.519 1108.8 420.478L1030.81 406.637Z" fill="#3FA9F5"/>
<path d="M1030.81 406.637C1037.13 408.742 1043.47 410.716 1049.87 412.406C1053.07 413.237 1056.28 414.053 1059.52 414.745C1062.75 415.437 1065.99 416.122 1069.25 416.675C1072.51 417.229 1075.81 417.775 1079.05 418.205C1082.3 418.635 1085.61 418.999 1088.91 419.327C1095.47 419.946 1102.14 420.274 1108.8 420.478C1102.15 421.165 1095.47 421.35 1088.8 421.032C1085.45 420.9 1082.12 420.602 1078.8 420.259C1075.47 419.917 1072.16 419.4 1068.87 418.802C1065.57 418.205 1062.31 417.52 1059.05 416.726C1055.79 415.932 1052.58 415.036 1049.39 414.009C1043.02 412.02 1036.81 409.556 1030.81 406.637Z" fill="black"/>
<path d="M935.685 431.769L918.556 431.405L896.689 428.491L894.138 428.127C892.903 428.276 891.768 428.882 890.959 429.826C890.149 430.77 889.723 431.984 889.765 433.226V439.054L895.596 444.882L924.023 455.081L942.974 457.995H952.45C955.788 453.988 958.514 449.981 957.917 445.975L952.085 443.789L935.685 431.769Z" fill="#998675"/>
<path d="M890.129 435.776L891.587 439.418L895.231 442.332L898.876 443.789L901.791 445.246L906.165 445.975L910.538 446.703L919.285 448.889L927.303 449.617L928.761 451.802H925.116H920.014H914.912L908.519 449.515L901.791 448.16L898.147 446.703L893.774 443.789L890.129 440.875L889.4 438.69L888.671 436.504V434.319L889.765 433.634L890.129 435.776Z" fill="#764736"/>
<g opacity="0.55">
<path opacity="0.55" d="M906.165 445.909C907.04 445.487 907.914 445.079 908.796 444.7L911.449 443.541H911.493H911.653C912.747 443.44 913.84 443.389 914.934 443.316C916.027 443.243 917.12 443.199 918.214 443.148H918.337L918.542 443.206C919.27 443.418 919.999 443.614 920.728 443.84L922.915 444.51L922.536 444.445C923.753 444.408 924.963 444.379 926.18 444.372H926.377L926.581 444.438L928.768 445.166C929.497 445.406 930.226 445.632 930.955 445.895L930.802 445.851L933.557 446.455C934.475 446.652 935.394 446.842 936.312 447.06H936.144L941.371 447.577C943.12 447.708 944.869 447.825 946.619 447.993H946.684C947.34 448.109 947.996 448.211 948.66 448.342C949.323 448.473 949.972 448.612 950.628 448.721C951.31 448.832 951.985 448.988 952.647 449.187C952.983 449.287 953.308 449.421 953.616 449.588C953.777 449.676 953.926 449.784 954.061 449.908C954.134 449.974 954.192 450.054 954.234 450.143C954.275 450.231 954.298 450.328 954.301 450.426H954.156C954.156 450.141 953.798 449.959 953.507 449.836C953.2 449.716 952.883 449.623 952.559 449.559C951.908 449.425 951.248 449.335 950.584 449.289C949.25 449.165 947.923 449.02 946.59 448.881L941.312 448.765L936.042 448.422L930.525 447.293L926.151 445.836H922.507L918.133 444.379H911.573L906.165 446.04V445.909Z" fill="black"/>
</g>
<path d="M925.481 433.226L932.041 436.869L933.499 442.696L930.583 444.153L925.481 442.696L926.21 437.597L924.752 434.683V432.498L925.481 427.398L921.836 425.213H916.005L917.463 431.041L923.294 431.769H926.938L931.312 433.226L934.227 435.412L925.481 433.226Z" stroke="#F7931E" stroke-miterlimit="10"/>
<path d="M966.663 459.816C964.475 456.559 961.624 453.801 958.296 451.722C952.749 448.663 946.925 448.619 941.232 448.568C936.859 448.568 936.99 448.903 932.405 448.889C928.235 448.835 924.082 448.347 920.014 447.432C911.785 445.771 910.538 444.139 907.623 445.246C904.175 446.557 901.449 450.513 901.791 453.988C901.908 455.161 903.082 456.712 905.436 459.816C908.009 463.21 910.05 464.915 912.237 466.117L912.725 466.372C917.689 468.936 920.393 467.96 925.845 471.471C929.227 473.657 930.08 475.245 932.405 477.299C937.507 481.772 948.849 487.833 957.917 483.127C965.862 479.004 971.54 466.809 966.663 459.816Z" fill="#998675"/>
<path d="M940.787 449.981L947.348 453.624L948.805 459.451L945.89 460.908L940.787 459.451L941.516 454.352L940.059 451.438V449.253L940.787 444.153L937.143 441.968H931.312L932.77 447.796L938.601 448.524H942.245L946.619 449.981L949.534 452.167L940.787 449.981Z" stroke="#F7931E" stroke-miterlimit="10"/>
<path d="M901.792 455.445L907.623 462.73C908.607 463.407 910.123 464.434 911.996 465.644C914.635 467.355 916.369 468.397 917.827 469.286C922.201 471.989 925.029 474.181 926.574 475.114C932.918 478.956 939.601 482.209 946.539 484.832C951.205 485.533 955.972 484.678 960.103 482.399L962.29 480.213C963.383 479.812 963.682 479.383 963.748 479.055C963.771 478.713 963.771 478.37 963.748 478.028V477.299L959.374 479.485L953.543 480.213H944.796L936.779 477.299L926.574 472.2L917.827 467.1L909.809 461.273C906.11 458.658 903.513 454.764 902.52 450.346C901.732 451.922 901.476 453.711 901.792 455.445Z" fill="#764736"/>
<path d="M1085.47 378.955C1090.67 380.79 1095.77 382.49 1100.78 384.054L1133.58 405.18V392.796C1131.94 375.159 1130.95 354.186 1127.02 348.359C1121.68 337.242 1109.23 329.761 1094.22 323.59C1090.4 325.044 1086.93 327.277 1084.02 330.147C1078.04 336.069 1076.47 343.121 1075.5 347.404C1074.51 351.777 1074.19 356.274 1074.54 360.743V375.312L1077.46 376.041C1080.08 377.012 1082.75 377.983 1085.47 378.955ZM1076.73 350.544L1076.79 350.245L1077.25 351.265L1076.73 350.544Z" fill="#B3B3B3"/>
<path d="M1050.85 313.027H1073.45L1093.13 320.13V325.412L1086.57 331.239L1080.01 335.61L1078.55 342.895L1071.99 347.266C1070.3 346.705 1066.89 347.266 1061.06 343.623H1055.22L1055.95 337.067L1050.85 331.968L1049.39 327.597L1050.85 313.027Z" fill="#FFE9E9"/>
<path d="M1058.14 299.915L1069.8 296.272C1079.16 298.611 1084.31 304.817 1087.3 313.027L1093.13 317.398V325.412L1088.02 326.14H1080.74L1075.63 322.498L1071.26 323.955L1066.89 327.597H1061.78L1059.6 320.312C1059.6 320.312 1056.68 318.855 1055.95 318.855C1054.96 319.009 1053.99 319.253 1053.04 319.584L1048.66 326.14L1042.83 322.498L1041.38 314.484L1048.66 307.928L1058.14 299.915Z" fill="black" stroke="black" stroke-miterlimit="10"/>
<path d="M1111.71 362.928C1111.96 367.299 1112.2 371.67 1112.44 376.041C1112.73 377.962 1112.3 379.922 1111.22 381.538C1110.14 383.155 1108.5 384.311 1106.61 384.782C1103.7 385.38 1100.74 385.801 1097.78 386.043C1090.74 386.614 1083.65 386.189 1076.73 384.782L1064.34 380.412L1067.25 377.498L1075.92 374.38C1080.17 372.85 1082.19 372.078 1085.47 370.941C1088.24 369.987 1090.52 369.244 1092.03 368.756L1111.71 362.928Z" fill="#FFE9E9"/>
<path d="M960.832 442.332C963.566 440.664 966.335 439.047 969.083 437.415L977.517 432.818L994.361 423.618L1011.22 414.424L1019.65 409.82C1022.51 408.4 1025.37 406.95 1028.25 405.544C1025.51 407.205 1022.74 408.822 1020 410.461L1011.56 415.058L994.711 424.259L977.852 433.452L969.426 438.056C966.569 439.484 963.748 440.934 960.832 442.332Z" fill="black"/>
<path d="M1011.45 382.816C1012.34 384.054 1013.11 385.376 1013.74 386.764C1014.03 387.492 1014.27 388.221 1014.59 388.884C1014.91 389.572 1015.27 390.241 1015.67 390.887C1016.48 392.184 1017.21 393.517 1017.86 394.872C1018.53 396.243 1019.1 397.657 1019.58 399.104H1019.52C1018.65 397.854 1017.87 396.547 1017.17 395.192C1016.49 393.83 1015.86 392.453 1015.3 391.033C1015.03 390.325 1014.71 389.634 1014.36 388.964C1013.99 388.294 1013.55 387.667 1013.17 387.012C1012.43 385.677 1011.83 384.271 1011.37 382.816H1011.45Z" fill="black"/>
<g opacity="0.99">
<path opacity="0.99" d="M1018.05 380.776C1018.88 382.477 1019.59 384.238 1020.16 386.043C1020.74 387.825 1021.24 389.629 1021.67 391.455C1022.09 393.281 1022.44 395.12 1022.72 396.97C1023 398.843 1023.15 400.735 1023.15 402.63C1022.32 400.929 1021.61 399.168 1021.04 397.363C1020.46 395.579 1019.96 393.772 1019.54 391.951C1019.11 390.129 1018.76 388.308 1018.5 386.436C1018.21 384.563 1018.06 382.671 1018.05 380.776Z" fill="black"/>
</g>
<g opacity="0.65">
<path opacity="0.65" d="M1105.88 341.802C1107.6 342.669 1109.08 343.96 1110.16 345.553C1111.24 347.147 1111.9 348.99 1112.08 350.908C1111.43 349.167 1110.59 347.507 1109.56 345.962C1108.5 344.439 1107.26 343.043 1105.88 341.802Z" fill="black"/>
</g>
<path opacity="0.55" d="M1088.75 345.809C1089 350.18 1089.24 354.551 1089.48 358.922C1090.06 362.2 1090.63 365.478 1091.22 368.756H1091.76C1091.76 368.756 1091.9 368.545 1091.98 368.574C1092.06 368.603 1092.04 368.676 1092.03 368.756" stroke="#4D4D4D" stroke-miterlimit="10"/>
<path opacity="0.7" d="M1081.68 372.398C1077.32 373.522 1073.09 375.12 1069.07 377.163C1067.22 378.11 1065.52 379.093 1063.97 380.077" stroke="#4D4D4D" stroke-miterlimit="10"/>
<path d="M1088.45 345.445C1089.01 346.832 1089.44 348.268 1089.73 349.735C1090.32 352.611 1090.61 355.541 1090.58 358.477C1090.58 359.971 1090.43 361.461 1090.15 362.928C1089.59 361.542 1089.16 360.105 1088.87 358.637C1088.57 357.194 1088.35 355.735 1088.21 354.267C1088.07 352.814 1088.01 351.355 1088.02 349.896C1088.03 348.402 1088.17 346.912 1088.45 345.445Z" fill="black"/>
<path d="M873 270.841L871.316 245.643L874.451 270.703L873 270.841Z" fill="black"/>
<g opacity="0.8">
<path opacity="0.8" d="M878.102 240.908L880.646 259.805L879.925 259.892L878.102 240.908Z" fill="black"/>
</g>
<g opacity="0.8">
<path opacity="0.8" d="M933.863 246.51L932.405 267.162L931.676 267.104L933.863 246.51Z" fill="black"/>
</g>
<g opacity="0.8">
<path opacity="0.8" d="M930.218 237.768L928.761 258.421L928.032 258.362L930.218 237.768Z" fill="black"/>
</g>
<path d="M933.863 236.173L877.738 237.63L870.449 244.915C870.689 245.643 870.937 246.372 871.178 247.1C871.418 248.798 871.666 250.502 871.907 252.2L933.863 249.286V244.915C934.104 243.217 934.351 241.513 934.592 239.815C934.351 238.599 934.104 237.39 933.863 236.173Z" fill="#A6BFC3"/>
<path d="M874.093 244.55C876.491 244.325 878.882 244.15 881.28 243.953L888.475 243.735L902.87 243.276L917.266 242.824L924.467 242.591C926.873 242.642 929.271 242.656 931.676 242.729C929.278 242.955 926.887 243.123 924.489 243.319L917.295 243.545L902.899 244.004L888.504 244.456L881.302 244.689C878.897 244.645 876.499 244.631 874.093 244.55Z" fill="black"/>
<path d="M885.282 245.643C885.282 253.744 883.54 274.054 893.475 276.917C894.933 271.205 899 227.205 909.117 241.739C916.814 252.782 895.618 278.345 913.592 278.403C915.393 268.204 924.679 247.275 919.176 238.57C912.725 228.349 880.194 229.056 885.282 245.643Z" fill="#F7931E"/>
<path d="M899.436 192.807C897.502 193.412 895.722 194.428 894.217 195.786C890.526 198.878 887.488 202.675 885.281 206.954C884.474 209.871 883.974 212.864 883.787 215.885C883.611 217.617 883.611 219.362 883.787 221.093C884.134 223.207 884.894 225.232 886.025 227.052L888.262 230.032L894.968 233.011L910.61 235.241L921.784 233.784C923.403 232.43 924.898 230.935 926.252 229.318C927.049 228.364 927.795 227.369 928.49 226.339C930.58 222.469 931.362 218.028 930.721 213.678C930.418 210.125 929.669 206.625 928.49 203.26C927.863 201.473 927.116 199.73 926.252 198.044C923.439 196.44 920.437 195.19 917.316 194.322C915.319 193.776 912.505 193.462 906.886 192.865C902.585 192.326 901.178 192.304 899.436 192.807Z" fill="#7BA1C7"/>
<g opacity="0.5">
<path opacity="0.5" d="M895.341 208.068C894.455 210.081 893.78 212.181 893.329 214.333C892.882 216.469 892.677 218.649 892.717 220.831C892.761 223.011 893.066 225.178 893.628 227.286L894.094 228.859L894.67 230.396L895.326 231.904C895.589 232.392 895.836 232.888 896.055 233.361C895.742 232.902 895.436 232.443 895.129 231.977L894.32 230.52L893.635 228.997L893.059 227.424C892.372 225.29 892.004 223.066 891.966 220.824C891.917 218.584 892.182 216.347 892.753 214.18C893.321 212.03 894.192 209.972 895.341 208.068Z" fill="black"/>
</g>
<g opacity="0.5">
<path opacity="0.5" d="M920.67 208.068C921.179 210.488 921.343 212.967 921.158 215.433C920.981 217.922 920.392 220.364 919.416 222.66C918.436 224.955 917.057 227.059 915.342 228.874C914.897 229.311 914.467 229.755 914.015 230.178C913.563 230.6 913.082 230.993 912.594 231.372C912.105 231.751 911.588 232.101 911.078 232.436C910.567 232.771 910.021 233.077 909.489 233.383C911.494 231.984 913.32 230.345 914.926 228.502C916.51 226.668 917.798 224.598 918.746 222.368C919.693 220.137 920.319 217.782 920.604 215.375C920.878 212.948 920.9 210.5 920.67 208.068Z" fill="black"/>
</g>
<path d="M902.418 189.084C902.229 195.568 905.8 202.67 912.098 197.272C922.93 188.021 902.819 175.192 902.418 189.084Z" fill="#FFE9E9"/>
<path d="M904.649 186.848L900.924 190.57C897.841 180.306 909.168 173.014 917.317 179.403C924.14 184.757 911.661 197.564 904.649 186.848Z" fill="#FA6945"/>
<path d="M886.025 229.282L891.39 237.477L921.785 239.706V231.518L886.025 229.282Z" fill="#B3B3B3"/>
<path d="M906.165 273.325V276.239V277.696L908.352 278.425L912.725 279.153H916.369L917.098 276.239L914.183 274.782L907.623 273.325H906.165Z" fill="#563405"/>
<path d="M889.4 272.597L885.756 275.511C885.756 275.511 883.569 276.968 883.569 277.696C883.569 278.425 886.485 279.882 886.485 279.882H890.129L893.774 276.968L894.503 274.782V272.597H889.4Z" fill="#563405"/>
<path d="M1067.25 278.425C1065.52 288.572 1087.94 278.425 1067.25 278.425V278.425Z" fill="#4D4D4D"/>
<path d="M1078.18 274.054C1078.31 272.945 1078.55 271.853 1078.91 270.798C1081.35 263.513 1089.12 254.341 1084.21 245.25C1079.42 236.355 1065.47 236.676 1059.58 242.955C1051.02 252.076 1059.79 263.127 1063.61 273.325C1063.61 273.362 1063.61 273.391 1063.61 273.435C1068.45 273.325 1073.32 273.915 1078.18 274.054Z" fill="#F7D98D"/>
<path d="M1068.34 274.418V248.193C1044.66 253.664 1095.88 263.374 1075.63 248.193C1073.52 251.362 1076.17 282.235 1068.34 274.418Z" stroke="#F2F2F2" stroke-miterlimit="10"/>
<path d="M1063.61 273.435C1063.07 276.349 1063.55 278.381 1064.72 279.656C1065.06 280.049 1065.79 280.61 1073.81 280.61C1076.73 280.61 1077.56 280.559 1078.18 279.882C1079.83 278.184 1078.37 274.535 1078.18 274.054C1073.32 273.915 1068.45 273.325 1063.61 273.435Z" fill="#CCCCCC"/>
<path d="M1097.86 220.146C1096.65 221.325 1095.38 222.434 1094.04 223.468C1092.73 224.503 1091.41 225.486 1090.09 226.462C1088.77 227.439 1087.44 228.386 1086.17 229.376C1085.52 229.862 1084.91 230.383 1084.32 230.935C1083.71 231.465 1083.23 232.135 1082.92 232.888C1082.8 231.989 1082.99 231.075 1083.46 230.301C1083.88 229.518 1084.39 228.784 1084.98 228.116C1086.12 226.829 1087.39 225.673 1088.79 224.67C1090.16 223.669 1091.61 222.776 1093.11 221.997C1094.63 221.216 1096.22 220.596 1097.86 220.146Z" fill="#F7D98D"/>
<g opacity="0.99">
<path opacity="0.99" d="M1064.62 220.146C1065.65 220.999 1066.51 222.034 1067.16 223.199C1067.79 224.288 1068.28 225.454 1068.62 226.666C1068.97 227.887 1069.15 229.149 1069.17 230.418C1069.22 231.796 1068.91 233.164 1068.28 234.388H1068.06C1068.02 233.784 1067.94 233.183 1067.83 232.589C1067.72 231.984 1067.6 231.387 1067.46 230.797C1067.18 229.612 1066.86 228.432 1066.52 227.256C1066.19 226.076 1065.86 224.896 1065.5 223.731L1064.42 220.219L1064.62 220.146Z" fill="#F7D98D"/>
</g>
<path d="M1038.82 224.517C1040.1 225.421 1041.3 226.429 1042.4 227.533C1043.51 228.626 1044.56 229.784 1045.53 231.001C1046.51 232.223 1047.39 233.53 1048.15 234.905C1048.53 235.606 1048.84 236.337 1049.1 237.091C1049.38 237.844 1049.48 238.652 1049.39 239.451C1049.19 238.717 1048.87 238.019 1048.45 237.382C1048.07 236.741 1047.62 236.122 1047.18 235.51C1046.28 234.291 1045.35 233.077 1044.39 231.868L1041.55 228.225C1040.61 227.067 1039.68 225.829 1038.82 224.517Z" fill="#F7D98D"/>
<path d="M937.872 320.312C931.786 329.374 930.532 339.537 930.583 350.18C930.583 356.423 930.751 362.673 931.071 368.916C931.239 372.02 931.465 375.13 931.669 378.233C931.953 382.524 931.873 382.604 934.708 384.914C950.081 397.407 976.438 379.086 986.147 368.159C992.167 361.384 997.08 353.145 1002.18 345.576C1006.43 339.209 1013.6 328.682 1021 326.839C1013.98 327.109 1006.1 328.34 999.128 327.48C993.407 326.752 989.332 323.284 984.091 321.74C968.07 317.034 954.032 317.376 937.872 320.312Z" fill="#F7D98D"/>
<path d="M948.827 331.757C948.04 333.214 947.297 335.1 948.098 336.339C949.286 338.225 952.814 336.71 959.761 337.067C966.131 337.395 971.634 339.107 972.152 337.796C972.21 337.643 972.152 337.628 972.152 337.067C972.203 335.61 972.779 334.947 972.881 334.153C972.961 333.519 972.772 332.558 971.423 331.239C968.286 330.769 965.119 330.525 961.947 330.511C957.544 330.492 953.149 330.91 948.827 331.757Z" fill="white"/>
<path d="M947.369 349.24C946.582 350.697 945.839 352.584 946.641 353.822C947.829 355.709 951.357 354.194 958.303 354.551C964.674 354.878 970.177 356.59 970.694 355.279C970.753 355.126 970.694 355.112 970.694 354.551C970.745 353.094 971.321 352.431 971.423 351.637C971.503 351.003 971.314 350.041 969.965 348.723C966.828 348.252 963.662 348.009 960.49 347.994C956.086 347.976 951.691 348.393 947.369 349.24Z" fill="white"/>
<path d="M942.996 371.094C942.209 372.551 941.465 374.438 942.267 375.677C943.455 377.563 946.983 376.048 953.93 376.405C960.3 376.733 965.803 378.445 966.321 377.133C966.379 376.981 966.321 376.966 966.321 376.405C966.372 374.948 966.948 374.285 967.05 373.491C967.13 372.857 966.94 371.896 965.592 370.577C962.455 370.106 959.288 369.863 956.116 369.849C951.712 369.83 947.318 370.247 942.996 371.094Z" fill="white"/>
<path d="M925.116 175.709C927.988 177.698 932.31 180.721 937.507 184.451C968.398 206.619 971.474 211.711 981.241 215.047C998.684 220.999 1023.46 216.57 1028.62 204.848C1035.49 189.237 1010.67 153.6 978.326 150.213C948.332 147.073 927.048 173.262 925.116 175.709Z" fill="#F7D98D"/>
<path d="M959.549 188.705C960.527 185.67 960.976 182.488 960.876 179.301C960.874 177.925 960.675 176.556 960.286 175.236C959.039 171.521 956.175 171.419 955.73 171.419C957.094 173.5 958.081 175.806 958.646 178.23C959.472 181.656 959.776 185.188 959.549 188.705Z" fill="#F15A57"/>
<path d="M963.682 179.993C961.233 179.862 959.855 179.352 959.681 179.483C959.506 179.614 962.713 181.246 967.072 181.413C968.424 181.512 969.783 181.404 971.102 181.093C973.253 180.503 974.237 179.221 973.493 178.907C972.495 178.463 969.003 180.291 963.682 179.993Z" fill="#F15A57"/>
<path d="M991.482 177.72C990.673 177.45 984.5 188.494 987.714 191.619C990.243 194.089 997.335 190.374 997.277 190.111C997.219 189.849 993.757 191.67 991.767 190.111C988.457 187.503 992.211 177.96 991.482 177.72Z" fill="#F15A57"/>
<path d="M992.029 172.905C990.571 173.283 989.281 174.638 989.66 175.418C990.105 176.329 992.947 176.729 993.968 175.6C994.136 175.402 994.258 175.171 994.328 174.921C994.398 174.671 994.413 174.41 994.372 174.154C994.331 173.898 994.236 173.654 994.092 173.438C993.948 173.222 993.759 173.041 993.538 172.905C993.051 172.726 992.516 172.726 992.029 172.905Z" fill="#F15A57"/>
<path d="M974.484 171.338C973.021 174.252 972.1 177.406 971.766 180.648C971.583 182.02 971.618 183.411 971.868 184.772C972.735 188.618 975.84 188.982 976.321 189.026C975.112 186.827 974.337 184.415 974.04 181.923C973.606 178.394 973.757 174.818 974.484 171.338Z" fill="#F15A57"/>
</g>
<defs>
<clipPath id="clip0">
<rect width="1437" height="291.497" fill="white"/>
</clipPath>
<clipPath id="clip1">
<rect width="677" height="468.193" fill="white" transform="translate(718 111.807)"/>
</clipPath>
</defs>
</svg>
