    <svg xmlns="http://www.w3.org/2000/svg" viewBox="0 0 16 16">
      <defs>
        <style>
          .cls-blue{
          fill: #83a4d7;
          }
          .cls-0 {
            fill: #f15a57;
          }
          .cls-1 {
            fill: #333;
          }
          .cls-2 {
            fill: #d9e021;
          }
          .cls-3 {
            fill: #fbb0ba;
          }
          .cls-4 {
            fill: #f15a24;
          }
          .cls-5 {
            fill: #e0bc3b;
          }
          .cls-6 {
            fill: #fcee21;
          }
        </style>
      </defs>
      <title>orbit</title>
      <g id="sky">
        <path
          class="cls-1"
          d="M17,8c-.45-3.41-3.8-4.91-4-5S9.72,2.27,8,4c-2,2.05-.88,6,1,8,.36.39,2.59,2.72,5,2S17.3,10.29,17,8Z"
          transform="translate(-2.98 -2.82)"
        />
        <g id="stars">
          <polygon
            class="cls-2"
            points="7.07 1.66 6.9 1.39 6.58 1.38 6.78 1.13 6.7 0.82 7 0.94 7.26 0.77 7.24 1.09 7.49 1.29 7.18 1.36 7.07 1.66"
          />
          <polygon
            class="cls-2"
            points="10.11 2.37 9.85 2.7 9.98 3.1 9.59 2.96 9.25 3.2 9.26 2.79 8.92 2.54 9.32 2.42 9.45 2.02 9.69 2.37 10.11 2.37"
          />
          <polygon
            class="cls-2"
            points="6.97 5.76 6.45 5.59 6.02 5.92 6.02 5.38 5.57 5.07 6.09 4.9 6.24 4.37 6.57 4.81 7.11 4.8 6.79 5.24 6.97 5.76"
          />
          <polygon
            class="cls-2"
            points="12.07 9.66 11.9 9.39 11.58 9.38 11.78 9.13 11.7 8.82 12 8.94 12.26 8.77 12.24 9.09 12.49 9.29 12.18 9.36 12.07 9.66"
          />
          <polygon
            class="cls-2"
            points="9.07 10.66 8.9 10.39 8.58 10.38 8.78 10.13 8.7 9.82 9 9.94 9.26 9.77 9.24 10.09 9.49 10.29 9.18 10.36 9.07 10.66"
          />
          <polygon
            class="cls-2"
            points="9.69 5.53 9.76 5.21 9.55 4.97 9.87 4.95 10.03 4.67 10.15 4.97 10.47 5.04 10.22 5.25 10.25 5.56 9.98 5.4 9.69 5.53"
          />
        </g>
      </g>
      <g id="planet">
        <path
          class="cls-3"
          d="M10.4,8.64A4.92,4.92,0,0,0,8,8a5,5,0,0,0-4.35,7.42C4.45,12.35,8.54,11.24,10.4,8.64Z"
          transform="translate(-2.98 -2.82)"
        />
        <path
          class="cls-4"
          d="M11.58,9.55a5,5,0,0,0-1.18-.91c-1.86,2.6-5.95,3.71-6.75,6.78A5.2,5.2,0,0,0,5.05,17C8.29,15.59,9.54,12.17,11.58,9.55Z"
          transform="translate(-2.98 -2.82)"
        />
        <path
          class="cls-5"
          d="M11.58,9.55c-2,2.62-3.29,6-6.53,7.46a4.87,4.87,0,0,0,3,1,5,5,0,0,0,5-5A4.92,4.92,0,0,0,11.58,9.55Z"
          transform="translate(-2.98 -2.82)"
        />
      </g>

      <g id="triangle" transform="matrix(0.8, -0.5, 0.25, 0.4, 5.5, 10.5)">
        <path
          id="fire"
          class="cls-blue"
          d="M3,10c-.21-.18,1.41-1.36,2-4,.31-1.39.2-2.58,1-3A1,1,0,0,1,7,3c.48.38.15,1.5,0,2C6.12,8,3.29,10.25,3,10Z"
        >
          <animateTransform
            attributeName="transform"
            type="rotate"
            from="360 0 0"
            to="0 0 0"
            dur="10s"
            repeatCount="indefinite"
          />
        </path>
        <circle id="star" class="cls-0" cx="6.3" cy="4" r="0.5">
          <animateTransform
            attributeName="transform"
            type="rotate"
            from="360 0 0"
            to="0 0 0"
            dur="10s"
            repeatCount="indefinite"
          />
        </circle>
      </g>
      <g id="overlay">
        <path
          class="cls-3"
          d="M10.4,8.64A4.92,4.92,0,0,0,8,8a5,5,0,0,0-4.35,7.42C4.45,12.35,8.54,11.24,10.4,8.64Z"
          transform="translate(-2.98 -2.82)"
        />
        <path
          class="cls-4"
          d="M11.58,9.55a5,5,0,0,0-1.18-.91c-1.86,2.6-5.95,3.71-6.75,6.78A5.2,5.2,0,0,0,5.05,17C8.29,15.59,9.54,12.17,11.58,9.55Z"
          transform="translate(-2.98 -2.82)"
        />
      </g>
    </svg>
