<svg xmlns="http://www.w3.org/2000/svg" viewBox="0 0 20 20.19">
  <defs>
    <style>
      .aad1a39f-4850-43a4-a6ba-e920911ccbd1{fill:#d9e021}.e323c2b3-a247-4881-bcec-cd9f4dad1be8{fill:#f15a24}
    </style>
  </defs>
  <title>
    webIcon3
  </title>
  <g id="a6d8cbd5-c629-4642-979d-8ae77dcb036c" data-name="sky">
    <path d="M128,188c1.72-1.73,4.67-1.08,5-1s3.55,1.59,4,5c.3,2.29-.71,5.32-3,6s-4.64-1.61-5-2C127.12,194,126,190.05,128,188Z" transform="translate(-120 -183.81)" style="fill:#333"/>
  </g>
  <g id="b3f06db4-8d2f-4285-8c38-293417d0682f" data-name="triangle">
    <g id="a9763600-eac2-485f-8a99-a08da9ec04db" data-name="stars">
      <polygon class="aad1a39f-4850-43a4-a6ba-e920911ccbd1" points="10.05 4.67 9.88 4.4 9.56 4.38 9.76 4.14 9.68 3.83 9.98 3.95 10.24 3.78 10.22 4.1 10.47 4.3 10.16 4.37 10.05 4.67"/>
      <polygon class="aad1a39f-4850-43a4-a6ba-e920911ccbd1" points="13.09 5.38 12.83 5.71 12.96 6.11 12.57 5.97 12.23 6.21 12.24 5.79 11.9 5.55 12.3 5.43 12.43 5.03 12.67 5.38 13.09 5.38"/>
      <polygon class="aad1a39f-4850-43a4-a6ba-e920911ccbd1" points="9.95 8.77 9.43 8.6 9 8.93 9 8.38 8.55 8.07 9.07 7.91 9.22 7.38 9.55 7.82 10.09 7.81 9.77 8.25 9.95 8.77"/>
      <polygon class="aad1a39f-4850-43a4-a6ba-e920911ccbd1" points="15.05 12.67 14.88 12.4 14.56 12.38 14.76 12.14 14.68 11.83 14.98 11.95 15.24 11.78 15.22 12.1 15.47 12.3 15.16 12.37 15.05 12.67"/>
      <polygon class="aad1a39f-4850-43a4-a6ba-e920911ccbd1" points="12.05 13.67 11.88 13.4 11.56 13.38 11.76 13.14 11.68 12.83 11.98 12.95 12.24 12.78 12.22 13.1 12.47 13.3 12.16 13.37 12.05 13.67"/>
      <polygon class="aad1a39f-4850-43a4-a6ba-e920911ccbd1" points="12.67 8.53 12.74 8.22 12.53 7.98 12.85 7.96 13.01 7.68 13.13 7.98 13.45 8.05 13.2 8.25 13.23 8.57 12.96 8.4 12.67 8.53"/>
    </g>
    <path id="bdf91d39-583b-465b-9141-166c64e82727" data-name="orbit" d="M122.64,188l-.29.38a9.7,9.7,0,0,0-1.47,2.95,11.06,11.06,0,0,0-.38,2.68,9.5,9.5,0,1,0,9.5-9.5,9.35,9.35,0,0,0-4.93,1.39" transform="translate(-120 -183.81)" style="fill:none;stroke:#29abe2;stroke-miterlimit:10"/>
    <polygon id="b6e5b5a2-020d-44bc-bf5f-2fb93c1ee1b8" data-name="star" class="e323c2b3-a247-4881-bcec-cd9f4dad1be8" points="5.67 5.38 3.79 4.58 2.08 5.67 2.26 3.64 0.69 2.34 2.68 1.89 3.43 0 4.47 1.75 6.5 1.88 5.16 3.41 5.67 5.38"/>
  </g>
  <g id="f7d7f2c0-98c7-428e-8567-cd823ad90ef1" data-name="planet">
    <path d="M130.9,192.14a4.92,4.92,0,0,0-2.4-.64,5,5,0,0,0-4.35,7.42C125,195.85,129,194.74,130.9,192.14Z" transform="translate(-120 -183.81)" style="fill:#fbb0ba"/>
    <path class="e323c2b3-a247-4881-bcec-cd9f4dad1be8" d="M132.08,193.05a5,5,0,0,0-1.18-.91c-1.86,2.6-6,3.71-6.75,6.78a5.2,5.2,0,0,0,1.4,1.59C128.79,199.09,130,195.67,132.08,193.05Z" transform="translate(-120 -183.81)"/>
    <path d="M132.08,193.05c-2,2.62-3.29,6-6.53,7.46a4.87,4.87,0,0,0,3,1,5,5,0,0,0,5-5A4.92,4.92,0,0,0,132.08,193.05Z" transform="translate(-120 -183.81)" style="fill:#e0bc3b"/>
  </g>
</svg>
