<svg xmlns="http://www.w3.org/2000/svg" viewBox="0 0 20 20"><defs><style>.f4b6b8a7-4652-4be7-9e0e-654b968fdf9a{fill:#333;}.f3265a47-2ea3-412f-a7fd-8f91be51e2fa{fill:#d9e021;}.b11511cf-7052-4fde-9095-b469a5d18286{fill:none;stroke:#29abe2;stroke-miterlimit:10;}.b86a2cfa-d52b-4fe5-aef8-318f0b9800f5{fill:#f15a24;}.faf52c0a-7e90-45a7-a531-7660647aaf2b{fill:#fbb0ba;}.ae432ee2-212d-4232-aa34-2d5f5c063294{fill:#e0bc3b;}</style></defs><title>webIcon2</title><g id="a678a439-e67c-4cab-9dfa-0ac398ef6f84" data-name="sky"><path class="f4b6b8a7-4652-4be7-9e0e-654b968fdf9a" d="M128,188c1.72-1.73,4.67-1.08,5-1s3.55,1.59,4,5c.3,2.29-.71,5.32-3,6s-4.64-1.61-5-2C127.12,194,126,190.05,128,188Z" transform="translate(-120 -184)"/></g><g id="b77ccd93-a9a8-4ce3-97b3-439305ae1888" data-name="triangle"><g id="b0645bf0-4963-4320-8448-c520b4b037fe" data-name="stars"><polygon class="f3265a47-2ea3-412f-a7fd-8f91be51e2fa" points="10.05 4.48 9.88 4.21 9.56 4.19 9.76 3.95 9.68 3.64 9.98 3.76 10.24 3.58 10.22 3.9 10.47 4.1 10.16 4.18 10.05 4.48"/><polygon class="f3265a47-2ea3-412f-a7fd-8f91be51e2fa" points="13.09 5.18 12.83 5.52 12.96 5.92 12.57 5.78 12.23 6.02 12.24 5.6 11.9 5.36 12.3 5.24 12.43 4.84 12.67 5.18 13.09 5.18"/><polygon class="f3265a47-2ea3-412f-a7fd-8f91be51e2fa" points="9.95 8.57 9.43 8.41 9 8.74 9 8.19 8.55 7.88 9.07 7.71 9.22 7.19 9.55 7.63 10.09 7.62 9.77 8.06 9.95 8.57"/><polygon class="f3265a47-2ea3-412f-a7fd-8f91be51e2fa" points="15.05 12.48 14.88 12.21 14.56 12.19 14.76 11.95 14.68 11.64 14.98 11.76 15.24 11.58 15.22 11.9 15.47 12.1 15.16 12.18 15.05 12.48"/><polygon class="f3265a47-2ea3-412f-a7fd-8f91be51e2fa" points="12.05 13.48 11.88 13.21 11.56 13.19 11.76 12.95 11.68 12.64 11.98 12.76 12.24 12.58 12.22 12.9 12.47 13.1 12.16 13.18 12.05 13.48"/><polygon class="f3265a47-2ea3-412f-a7fd-8f91be51e2fa" points="12.67 8.34 12.74 8.03 12.53 7.79 12.85 7.77 13.01 7.49 13.13 7.79 13.45 7.86 13.2 8.06 13.23 8.38 12.96 8.21 12.67 8.34"/></g><path id="a9ece3d0-7df5-456a-92ea-05a07c611947" data-name="orbit" class="b11511cf-7052-4fde-9095-b469a5d18286" d="M122.64,188l-.29.38a9.7,9.7,0,0,0-1.47,2.95,11.06,11.06,0,0,0-.38,2.68,9.5,9.5,0,1,0,9.5-9.5,9.35,9.35,0,0,0-4.93,1.39" transform="translate(-120 -184)"/><polygon id="ed041856-6455-4dca-bebc-69c2cf09212a" data-name="star" class="b86a2cfa-d52b-4fe5-aef8-318f0b9800f5" points="4.28 3.41 3.55 3.1 2.87 3.52 2.94 2.73 2.33 2.22 3.11 2.04 3.4 1.3 3.81 1.99 4.61 2.04 4.08 2.64 4.28 3.41"/></g><g id="be9a7791-d431-4141-9327-2e2465c30d57" data-name="planet"><path class="faf52c0a-7e90-45a7-a531-7660647aaf2b" d="M130.9,192.14a4.92,4.92,0,0,0-2.4-.64,5,5,0,0,0-4.35,7.42C125,195.85,129,194.74,130.9,192.14Z" transform="translate(-120 -184)"/><path class="b86a2cfa-d52b-4fe5-aef8-318f0b9800f5" d="M132.08,193.05a5,5,0,0,0-1.18-.91c-1.86,2.6-6,3.71-6.75,6.78a5.2,5.2,0,0,0,1.4,1.59C128.79,199.09,130,195.67,132.08,193.05Z" transform="translate(-120 -184)"/><path class="ae432ee2-212d-4232-aa34-2d5f5c063294" d="M132.08,193.05c-2,2.62-3.29,6-6.53,7.46a4.87,4.87,0,0,0,3,1,5,5,0,0,0,5-5A4.92,4.92,0,0,0,132.08,193.05Z" transform="translate(-120 -184)"/></g></svg>