<svg xmlns="http://www.w3.org/2000/svg" viewBox="0 0 22.82 21.32"><defs><style>.b9edcb40-f619-4265-ab44-830f45a28547{fill:#333;}.ee9ab56d-0c66-46ab-a4e7-a9a268bb54ad{fill:#d9e021;}.ab05583a-4f27-41b3-a5bc-111c265b7310{fill:none;stroke:#29abe2;stroke-miterlimit:10;}.aeda76da-eafb-43af-9a78-bca64e0cf9eb{fill:#fbb0ba;}.b3999ed2-e8ec-4980-a7a9-5ed7066d472a{fill:#f15a24;}.a6fffc8a-2752-44bc-9f95-0a8e122773e2{fill:#e0bc3b;}</style></defs><title>webIcon</title><g id="a18b8dd9-d741-45f8-9e32-9a729c686d9d" data-name="sky"><path class="b9edcb40-f619-4265-ab44-830f45a28547" d="M128,188c1.72-1.73,4.67-1.08,5-1s3.55,1.59,4,5c.3,2.29-.71,5.32-3,6s-4.64-1.61-5-2C127.12,194,126,190.05,128,188Z" transform="translate(-119.66 -182.93)"/></g><g id="a3ce7c25-21b9-49db-b2a2-26dba2112aa0" data-name="triangle"><polygon class="ee9ab56d-0c66-46ab-a4e7-a9a268bb54ad" points="10.39 5.55 10.22 5.28 9.9 5.26 10.1 5.01 10.02 4.71 10.32 4.83 10.59 4.65 10.56 4.97 10.81 5.17 10.5 5.25 10.39 5.55"/><polygon class="ee9ab56d-0c66-46ab-a4e7-a9a268bb54ad" points="13.43 6.25 13.17 6.58 13.3 6.98 12.91 6.84 12.57 7.09 12.58 6.67 12.24 6.42 12.64 6.3 12.77 5.91 13.01 6.25 13.43 6.25"/><polygon class="ee9ab56d-0c66-46ab-a4e7-a9a268bb54ad" points="10.29 9.64 9.77 9.47 9.34 9.8 9.34 9.26 8.89 8.95 9.41 8.78 9.56 8.26 9.89 8.7 10.43 8.68 10.11 9.13 10.29 9.64"/><polygon class="ee9ab56d-0c66-46ab-a4e7-a9a268bb54ad" points="15.39 13.55 15.22 13.28 14.9 13.26 15.1 13.02 15.02 12.71 15.32 12.83 15.59 12.65 15.56 12.97 15.81 13.17 15.5 13.25 15.39 13.55"/><polygon class="ee9ab56d-0c66-46ab-a4e7-a9a268bb54ad" points="12.39 14.55 12.22 14.28 11.9 14.26 12.1 14.02 12.02 13.71 12.32 13.83 12.59 13.65 12.56 13.97 12.81 14.17 12.5 14.25 12.39 14.55"/><polygon class="ee9ab56d-0c66-46ab-a4e7-a9a268bb54ad" points="13.01 9.41 13.09 9.1 12.87 8.86 13.19 8.83 13.35 8.56 13.47 8.85 13.79 8.92 13.54 9.13 13.57 9.45 13.3 9.28 13.01 9.41"/><path class="ab05583a-4f27-41b3-a5bc-111c265b7310" d="M120.5,199.5a19.43,19.43,0,0,0,19,3,12.55,12.55,0,0,0-5-19,13.49,13.49,0,0,0-11,4C118.83,192.54,120.38,199.05,120.5,199.5Z" transform="translate(-119.66 -182.93)"/></g><g id="be440f02-8959-494a-b2c6-567142d63a7f" data-name="planet"><path class="aeda76da-eafb-43af-9a78-bca64e0cf9eb" d="M130.9,192.14a4.92,4.92,0,0,0-2.4-.64,5,5,0,0,0-4.35,7.42C125,195.85,129,194.74,130.9,192.14Z" transform="translate(-119.66 -182.93)"/><path class="b3999ed2-e8ec-4980-a7a9-5ed7066d472a" d="M132.08,193.05a5,5,0,0,0-1.18-.91c-1.86,2.6-6,3.71-6.75,6.78a5.2,5.2,0,0,0,1.4,1.59C128.79,199.09,130,195.67,132.08,193.05Z" transform="translate(-119.66 -182.93)"/><path class="a6fffc8a-2752-44bc-9f95-0a8e122773e2" d="M132.08,193.05c-2,2.62-3.29,6-6.53,7.46a4.87,4.87,0,0,0,3,1,5,5,0,0,0,5-5A4.92,4.92,0,0,0,132.08,193.05Z" transform="translate(-119.66 -182.93)"/></g></svg>